<svg width="36" height="36" viewBox="0 0 36 36" fill="none" xmlns="http://www.w3.org/2000/svg">
<rect width="36" height="36" rx="5" fill="#2A9D8F" fill-opacity="0.08"/>
<g clip-path="url(#clip0_2108_27537)">
<path d="M21.6654 17.332C19.276 17.332 17.332 19.276 17.332 21.6654C17.332 24.0547 19.276 25.9987 21.6654 25.9987C24.0547 25.9987 25.9987 24.0547 25.9987 21.6654C25.9987 19.276 24.0547 17.332 21.6654 17.332ZM23.5374 22.8334L22.0374 24.5C21.942 24.6054 21.8074 24.6654 21.6654 24.6654C21.5234 24.6654 21.3887 24.6054 21.2934 24.5L19.7934 22.8334C19.5047 22.512 19.7334 21.9987 20.1654 21.9987H20.9987V19.332C20.9987 18.964 21.2967 18.6654 21.6654 18.6654C22.034 18.6654 22.332 18.964 22.332 19.332V21.9987H23.1654C23.5974 21.9987 23.826 22.512 23.5374 22.8334Z" fill="#0F3650"/>
<path d="M16.6667 10L23.3333 12.6667L16.6667 15.3333L10 12.6667L16.6667 10Z" fill="#0F3650"/>
<path d="M16 16.5016L10 14.1016V20.6656C10 20.8056 10.0867 20.9296 10.218 20.9782L16 23.1082V16.5016Z" fill="#0F3650"/>
<path d="M21.6654 15.9989C22.2454 15.9989 22.8047 16.0876 23.332 16.2496V14.1016L17.332 16.5016V18.0216C18.372 16.7869 19.928 15.9989 21.6654 15.9989Z" fill="#0F3650"/>
</g>
<defs>
<clipPath id="clip0_2108_27537">
<rect width="16" height="16" fill="white" transform="translate(10 10)"/>
</clipPath>
</defs>
</svg>
