<svg width="103" height="94" viewBox="0 0 103 94" fill="none" xmlns="http://www.w3.org/2000/svg">
<path d="M61.5669 22.1381L73.7494 55.7661C74.5377 57.942 73.4024 60.3673 71.2265 61.1556L37.5983 73.3382C35.4224 74.1264 32.9971 72.9911 32.2088 70.8152L17.1598 29.2746C16.8731 28.4833 16.8832 27.5846 17.0638 26.8479C17.362 25.5091 18.298 24.3868 19.6828 23.8851L45.3984 14.569L48.2649 22.4816C49.0532 24.6575 51.4785 25.7928 53.6544 25.0046L61.5669 22.1381Z" fill="#EBEBEB"/>
<path d="M61.5669 22.1393L53.6544 25.0058C51.4785 25.7941 49.0532 24.6587 48.2649 22.4828L45.3984 14.5703L61.5669 22.1393Z" fill="#AAB1BA"/>
<path d="M71.227 61.1569L73.3127 60.737C73.5363 61.663 74.045 64.6115 70.6822 65.8297L35.076 78.7289C32.9001 79.5172 30.4748 78.3818 29.6866 76.2059L13.9209 32.6873C13.9209 32.6873 12.4877 28.7311 16.4439 27.2978L17.0645 26.8492C16.8839 27.5859 16.8739 28.4847 17.1605 29.2759L32.2095 70.8165C32.9978 72.9924 35.4231 74.1277 37.599 73.3395L71.227 61.1569Z" fill="#EBEBEB"/>
<path d="M72.6595 66.2062L36.0488 79.4693C33.3568 80.4445 30.423 79.0711 29.4478 76.3791L13.064 31.1541C12.0888 28.4622 13.4622 25.5284 16.1541 24.5532L44.1506 14.4108C44.2582 14.3718 44.5126 14.4014 44.6203 14.3624L56.3554 19.856C56.6488 19.9934 56.7658 20.3164 56.6284 20.6097C56.491 20.9032 56.168 21.0202 55.8747 20.8828L44.2863 15.458L16.5052 25.5223C14.4594 26.2634 13.3606 28.6104 14.1018 30.6564L30.4856 75.8814C31.2267 77.9273 33.5737 79.0261 35.6197 78.2849L72.2304 65.0218C74.2762 64.2807 75.375 61.9337 74.6338 59.8877L61.5658 23.8153L53.4899 26.741C50.798 27.7162 47.8642 26.3428 46.8889 23.6509L45.7187 20.4205C45.6016 20.0975 45.739 19.8041 46.062 19.687C46.3851 19.57 46.6785 19.7074 46.7955 20.0304L47.9658 23.2608C48.707 25.3066 51.054 26.4054 53.0999 25.6642L61.7143 22.5435C62.0373 22.4264 62.3307 22.5638 62.4478 22.8869L75.7108 59.4975C76.7248 62.2972 75.3515 65.231 72.6595 66.2062ZM62.2978 57.7789L47.2229 63.2402C46.8999 63.3572 46.6064 63.2198 46.4894 62.8968C46.3724 62.5738 46.5098 62.2803 46.8328 62.1633L61.9078 56.702C62.2309 56.585 62.5243 56.7224 62.6413 57.0454C62.7582 57.3685 62.6209 57.6619 62.2978 57.7789ZM42.9157 64.8006L38.6086 66.3609C38.2855 66.4779 37.9921 66.3406 37.8751 66.0175C37.7581 65.6945 37.8954 65.4011 38.2185 65.284L42.5256 63.7237C42.8486 63.6067 43.142 63.744 43.2591 64.0671C43.3761 64.3901 43.2387 64.6835 42.9157 64.8006ZM57.8038 52.0984L53.4967 53.6587C53.1737 53.7757 52.8802 53.6384 52.7632 53.3153C52.6462 52.9923 52.7835 52.6989 53.1066 52.5818L57.4137 51.0215C57.7367 50.9045 58.0301 51.0418 58.1472 51.3649C58.2641 51.688 58.1268 51.9813 57.8038 52.0984ZM49.1895 55.2191L36.268 59.9002C35.945 60.0172 35.6516 59.8799 35.5345 59.5568C35.4175 59.2338 35.5549 58.9404 35.8779 58.8233L48.7993 54.1422C49.1224 54.0252 49.4158 54.1626 49.5328 54.4856C49.6499 54.8086 49.5125 55.1021 49.1895 55.2191ZM57.6167 44.8575L49.0024 47.9782C48.6794 48.0953 48.3859 47.9579 48.2689 47.6349C48.1519 47.3118 48.2893 47.0184 48.6123 46.9014L57.2266 43.7806C57.5497 43.6636 57.8431 43.801 57.9601 44.124C58.0771 44.447 57.9398 44.7405 57.6167 44.8575ZM44.6953 49.5386L42.5417 50.3188C42.2187 50.4358 41.9252 50.2984 41.8082 49.9754C41.6912 49.6524 41.8285 49.3589 42.1516 49.2419L44.3052 48.4617C44.6282 48.3447 44.9217 48.4821 45.0387 48.8051C45.1557 49.1281 45.0183 49.4216 44.6953 49.5386ZM38.2346 51.8791L33.9275 53.4395C33.6045 53.5565 33.311 53.4191 33.194 53.0961C33.077 52.7731 33.2143 52.4796 33.5374 52.3626L37.8445 50.8023C38.1675 50.6852 38.4609 50.8226 38.578 51.1456C38.695 51.4687 38.5576 51.7621 38.2346 51.8791ZM53.1227 39.1769L42.3549 43.0778C42.0319 43.1949 41.7384 43.0575 41.6214 42.7345C41.5044 42.4114 41.6417 42.118 41.9648 42.001L52.7326 38.1001C53.0556 37.983 53.3491 38.1204 53.4661 38.4434C53.583 38.7665 53.4457 39.0599 53.1227 39.1769ZM38.0477 44.6382L31.5869 46.9788C31.2639 47.0958 30.9705 46.9584 30.8535 46.6354C30.7364 46.3124 30.8738 46.0189 31.1968 45.9019L37.6575 43.5614C37.9806 43.4443 38.274 43.5817 38.391 43.9047C38.5081 44.2278 38.3707 44.5212 38.0477 44.6382ZM41.3876 33.6833L28.4662 38.3644C28.1432 38.4815 27.8497 38.3441 27.7327 38.0211C27.6157 37.698 27.7531 37.4046 28.0761 37.2876L40.9975 32.6065C41.3206 32.4894 41.614 32.6268 41.731 32.9498C41.848 33.2729 41.7107 33.5663 41.3876 33.6833Z" fill="#264653" fill-opacity="0.5"/>
<g clip-path="url(#clip0_1743_28021)">
<path d="M94.6771 41.0013L85.656 78.881C85.0723 81.332 82.5894 82.8598 80.1384 82.2761L42.2585 73.255C39.8075 72.6713 38.2797 70.1883 38.8634 67.7373L50.0071 20.9447C50.2193 20.0533 50.7658 19.2417 51.3706 18.6794C52.4423 17.6395 53.965 17.1781 55.5248 17.5496L84.4917 24.448L82.3691 33.361C81.7853 35.812 83.3132 38.2949 85.7642 38.8786L94.6771 41.0013Z" fill="#EEF8F6"/>
<path d="M94.6776 41.0005L85.7647 38.8779C83.3137 38.2942 81.7859 35.8112 82.3696 33.3602L84.4922 24.4473L94.6776 41.0005Z" fill="#AAB1BA"/>
<path d="M80.1386 82.2753L82.2873 83.1402C81.9371 84.1164 80.6371 87.1031 76.8492 86.2011L36.7412 76.6493C34.2902 76.0656 32.7624 73.5827 33.3461 71.1317L45.0204 22.1109C45.0204 22.1109 46.0817 17.6545 50.5381 18.7158L51.371 18.6786C50.7662 19.241 50.2197 20.0527 50.0075 20.9439L38.8638 67.7365C38.2801 70.1875 39.8079 72.6705 42.2589 73.2542L80.1386 82.2753Z" fill="#EEF8F6"/>
<path d="M36.7397 76.6506L76.8477 86.2023C76.8477 86.2023 75.7864 90.6587 71.33 89.5975L31.222 80.0458C28.771 79.462 27.2432 76.9791 27.8269 74.5281L39.5012 25.5072C39.5012 25.5072 40.5625 21.0508 45.0189 22.1121L33.3446 71.133C32.7607 73.5839 34.2886 76.0669 36.7397 76.6506Z" fill="#EEF8F6"/>
<path d="M71.1997 90.152L31.0917 80.6003C28.3065 79.937 26.6089 77.1781 27.2722 74.3929L38.9465 25.372C39.0261 25.0378 39.302 24.868 39.6363 24.9476C39.9705 25.0272 40.1403 25.3031 40.0607 25.6373L28.3864 74.6582C27.8823 76.775 29.2403 78.9822 31.3572 79.4863L71.4651 89.038C71.7994 89.1176 71.9692 89.3935 71.8896 89.7278C71.8099 90.0618 71.5339 90.2316 71.1997 90.152ZM76.7175 86.7568L36.6096 77.2051C33.8243 76.5418 32.1267 73.7829 32.79 70.9977L44.4643 21.9769C44.5439 21.6427 44.8199 21.4729 45.1541 21.5525C45.4883 21.6321 45.6581 21.908 45.5785 22.2423L33.9042 71.2631C33.4001 73.3799 34.7581 75.5871 36.875 76.0912L76.983 85.6429C77.3172 85.7225 77.487 85.9985 77.4074 86.3327C77.3276 86.6667 77.0518 86.8364 76.7175 86.7568ZM80.007 82.8311L42.1273 73.81C39.342 73.1467 37.6444 70.3878 38.3077 67.6026L49.4514 20.8099C50.1147 18.0247 52.8736 16.3271 55.6588 16.9904L84.6258 23.8889C84.7371 23.9154 84.9335 24.0798 85.0448 24.1064L91.8351 35.1419C92.0049 35.4178 91.9253 35.7521 91.6494 35.9217C91.3735 36.0915 91.0393 36.0119 90.8696 35.736L84.1641 24.8385L55.4201 17.9931C53.3033 17.489 51.0961 18.847 50.592 20.9639L39.4483 67.7565C38.9442 69.8733 40.3022 72.0804 42.4191 72.5846L80.2988 81.6056C82.4156 82.1097 84.6227 80.7517 85.1269 78.6348L94.0153 41.3121L85.6595 39.3222C82.8742 38.6589 81.1766 35.9 81.8399 33.1147L82.6359 29.7724C82.7155 29.4382 82.9914 29.2684 83.3257 29.348C83.6599 29.4276 83.8297 29.7035 83.7501 30.0377L82.9541 33.3801C82.45 35.4968 83.808 37.704 85.9249 38.2081L94.8378 40.3308C95.1721 40.4103 95.3419 40.6863 95.2623 41.0205L86.2412 78.9002C85.5511 81.7968 82.7923 83.4944 80.007 82.8311ZM75.9755 70.0981L60.3781 66.3835C60.0439 66.3039 59.8741 66.028 59.9537 65.6938C60.0333 65.3595 60.3092 65.1897 60.6434 65.2693L76.241 68.9839C76.5753 69.0635 76.745 69.3394 76.6654 69.6737C76.5857 70.0079 76.3098 70.1777 75.9755 70.0981ZM55.9216 65.3222L51.4652 64.2609C51.1309 64.1813 50.9611 63.9054 51.0407 63.5711C51.1203 63.2369 51.3963 63.0671 51.7305 63.1467L56.1869 64.208C56.5211 64.2876 56.6909 64.5635 56.6113 64.8978C56.5317 65.232 56.2558 65.4018 55.9216 65.3222ZM75.3394 62.8828L70.883 61.8215C70.5487 61.7419 70.3789 61.4659 70.4585 61.1317C70.5381 60.7975 70.8141 60.6277 71.1483 60.7073L75.6047 61.7686C75.9389 61.8482 76.1087 62.1241 76.0291 62.4583C75.9494 62.7925 75.6736 62.9624 75.3394 62.8828ZM66.4264 60.7602L53.0571 57.5763C52.7229 57.4967 52.5531 57.2207 52.6327 56.8865C52.7123 56.5522 52.9882 56.3825 53.3225 56.4621L66.6918 59.646C67.026 59.7256 67.1958 60.0015 67.1162 60.3357C67.0366 60.67 66.7607 60.8398 66.4264 60.7602ZM79.1595 56.7287L70.2465 54.6061C69.9123 54.5265 69.7425 54.2506 69.8221 53.9163C69.9017 53.5821 70.1776 53.4123 70.5119 53.4919L79.4248 55.6145C79.759 55.6941 79.9288 55.9701 79.8492 56.3043C79.7696 56.6385 79.4937 56.8083 79.1595 56.7287ZM65.7901 53.5448L63.5619 53.0142C63.2276 52.9346 63.0578 52.6586 63.1374 52.3244C63.217 51.9902 63.493 51.8204 63.8272 51.9L66.0555 52.4306C66.3897 52.5102 66.5595 52.7862 66.4799 53.1204C66.4003 53.4546 66.1244 53.6244 65.7901 53.5448ZM59.1055 51.9529L54.6491 50.8916C54.3148 50.812 54.145 50.5361 54.2246 50.2018C54.3042 49.8676 54.5802 49.6978 54.9144 49.7774L59.3708 50.8387C59.705 50.9183 59.8748 51.1942 59.7952 51.5285C59.7156 51.8627 59.4397 52.0325 59.1055 51.9529ZM78.5233 49.5134L67.3822 46.8602C67.048 46.7806 66.8782 46.5047 66.9578 46.1704C67.0374 45.8362 67.3133 45.6664 67.6476 45.746L78.7886 48.3992C79.1228 48.4788 79.2926 48.7548 79.213 49.089C79.1333 49.4232 78.8575 49.593 78.5233 49.5134ZM62.9257 45.7989L56.241 44.2069C55.9068 44.1273 55.737 43.8514 55.8166 43.5172C55.8962 43.1829 56.1721 43.0131 56.5064 43.0927L63.191 44.6847C63.5253 44.7643 63.695 45.0402 63.6155 45.3745C63.5359 45.7087 63.2599 45.8785 62.9257 45.7989ZM71.733 38.4779L58.3636 35.294C58.0294 35.2144 57.8596 34.9385 57.9392 34.6042C58.0188 34.27 58.2947 34.1002 58.629 34.1798L71.9983 37.3637C72.3325 37.4433 72.5023 37.7192 72.4227 38.0535C72.3431 38.3877 72.0672 38.5575 71.733 38.4779Z" fill="#264653" fill-opacity="0.5"/>
</g>
<defs>
<clipPath id="clip0_1743_28021">
<rect width="67.5709" height="67.5709" fill="white" transform="translate(37.2754 12.6133) rotate(13.3955)"/>
</clipPath>
</defs>
</svg>
