<svg width="14" height="14" viewBox="0 0 14 14" fill="none" xmlns="http://www.w3.org/2000/svg">
<g clip-path="url(#clip0_1867_26390)">
<path d="M2.11607 14H11.885C12.909 14 13.7413 13.1678 13.7413 12.1437V2.89332C13.7413 1.86925 12.909 1.03702 11.885 1.03702H11.1487V0.518509C11.1487 0.23332 10.9153 0 10.6301 0C10.3449 0 10.1116 0.23332 10.1116 0.518509V1.03702H3.88941V0.518509C3.88941 0.23332 3.65605 0 3.37086 0C3.08567 0 2.85235 0.23332 2.85235 0.518509V1.03702H2.11607C1.092 1.03702 0.259766 1.86925 0.259766 2.89332V12.1437C0.259766 13.1678 1.092 14 2.11607 14ZM1.29683 2.89332C1.29683 2.44222 1.66497 2.07408 2.11607 2.07408H2.85235V2.59259C2.85235 2.87778 3.08567 3.1111 3.37086 3.1111C3.65605 3.1111 3.88937 2.87778 3.88937 2.59259V2.07408H10.1116V2.59259C10.1116 2.87778 10.3449 3.1111 10.6301 3.1111C10.9153 3.1111 11.1486 2.87778 11.1486 2.59259V2.07408H11.8849C12.336 2.07408 12.7042 2.44222 12.7042 2.89332V4.40741H1.29683V2.89332ZM1.29683 5.44443H12.7042V12.1437C12.7042 12.5948 12.3361 12.9629 11.885 12.9629H2.11607C1.66497 12.9629 1.29683 12.5948 1.29683 12.1437V5.44443Z" fill="#8D8D8D"/>
</g>
<defs>
<clipPath id="clip0_1867_26390">
<rect width="14" height="14" fill="white"/>
</clipPath>
</defs>
</svg>
