<svg width="15" height="14" viewBox="0 0 15 14" fill="none" xmlns="http://www.w3.org/2000/svg">
<g clip-path="url(#clip0_1445_29906)">
<path d="M12.3213 6.99992C12.0254 6.99992 11.7855 7.22378 11.7855 7.49992V12.4998C11.7855 12.776 11.5457 12.9998 11.2498 12.9998H1.60712C1.31125 12.9998 1.0714 12.776 1.0714 12.4998V2.49998C1.0714 2.22383 1.31125 1.99998 1.60712 1.99998H8.03561C8.33148 1.99998 8.57133 1.77612 8.57133 1.49997C8.57133 1.22383 8.33148 1 8.03561 1H1.60712C0.719532 1 0 1.67156 0 2.49998V12.4998C0 13.3283 0.719532 13.9998 1.60712 13.9998H11.2499C12.1374 13.9998 12.857 13.3283 12.857 12.4998V7.49989C12.857 7.22378 12.6171 6.99992 12.3213 6.99992Z" fill="white"/>
<path d="M14.3998 0.560684C14.0152 0.201626 13.4935 -5.06826e-05 12.9495 7.91039e-06C12.4051 -0.00145691 11.8829 0.200572 11.4993 0.561006L4.44295 7.14639C4.38441 7.20144 4.34025 7.26835 4.31385 7.34188L3.24245 10.3418C3.14894 10.6038 3.3007 10.887 3.58142 10.9742C3.63588 10.9911 3.69291 10.9998 3.75029 10.9998C3.8078 10.9998 3.86495 10.9911 3.91957 10.9744L7.13381 9.97438C7.21276 9.94977 7.28448 9.90834 7.34327 9.85338L14.3996 3.26747C15.2005 2.52006 15.2006 1.30818 14.3998 0.560684ZM13.6421 2.56096L6.67792 9.06089L4.59723 9.70936L5.28989 7.76988L12.2568 1.26998C12.6398 0.913209 13.2602 0.913795 13.6424 1.27127C13.825 1.44204 13.9279 1.67322 13.9287 1.91447C13.9294 2.15702 13.8262 2.38975 13.6421 2.56096Z" fill="white"/>
</g>
<defs>
<clipPath id="clip0_1445_29906">
<rect width="15" height="14" fill="white"/>
</clipPath>
</defs>
</svg>
