<svg width="14" height="15" viewBox="0 0 14 15" fill="none" xmlns="http://www.w3.org/2000/svg">
<g clip-path="url(#clip0_1445_21883)">
<path d="M11.4998 7.49992C11.2237 7.49992 10.9998 7.72378 10.9998 7.99992V12.9998C10.9998 13.276 10.776 13.4998 10.4998 13.4998H1.49998C1.22383 13.4998 0.999977 13.276 0.999977 12.9998V2.99998C0.999977 2.72383 1.22383 2.49998 1.49998 2.49998H7.4999C7.77605 2.49998 7.9999 2.27612 7.9999 1.99997C7.9999 1.72383 7.77605 1.5 7.4999 1.5H1.49998C0.671563 1.5 0 2.17156 0 2.99998V12.9998C0 13.8283 0.671563 14.4998 1.49998 14.4998H10.4999C11.3283 14.4998 11.9998 13.8283 11.9998 12.9998V7.99989C11.9998 7.72378 11.776 7.49992 11.4998 7.49992Z" fill="#0F3650"/>
<path d="M13.4393 1.06068C13.0803 0.701626 12.5934 0.499949 12.0856 0.500008C11.5776 0.498543 11.0902 0.700572 10.7322 1.06101L4.14624 7.64639C4.0916 7.70144 4.05038 7.76835 4.02574 7.84188L3.02576 10.8418C2.93849 11.1038 3.08014 11.387 3.34214 11.4742C3.39296 11.4911 3.4462 11.4998 3.49975 11.4998C3.55342 11.4998 3.60677 11.4911 3.65775 11.4744L6.65771 10.4744C6.73139 10.4498 6.79833 10.4083 6.8532 10.3534L13.4391 3.76747C14.1866 3.02006 14.1867 1.80818 13.4393 1.06068ZM12.7321 3.06096L6.2322 9.56089L4.29023 10.2094L4.93671 8.26988L11.4391 1.76998C11.7966 1.41321 12.3756 1.41379 12.7324 1.77127C12.9028 1.94204 12.9989 2.17322 12.9996 2.41447C13.0002 2.65702 12.9039 2.88975 12.7321 3.06096Z" fill="#0F3650"/>
</g>
<defs>
<clipPath id="clip0_1445_21883">
<rect width="14" height="14" fill="white" transform="translate(0 0.5)"/>
</clipPath>
</defs>
</svg>
