<svg width="554" height="369" viewBox="0 0 554 369" fill="none" xmlns="http://www.w3.org/2000/svg">
<path d="M162.421 90.2305L79.5391 145.621L161.173 267.551L244.055 212.161L162.421 90.2305Z" fill="#F5F5F5"/>
<path d="M201.228 206.389L200.287 212.205L159.086 206.275L160.026 200.459L201.228 206.389Z" fill="#E0E0E0"/>
<path d="M180.478 185.641L186.39 186.492L179.835 227.021L173.922 226.171L180.478 185.641Z" fill="#E0E0E0"/>
<path d="M142.528 134.128C142.587 134.217 134.28 139.87 123.978 146.755C113.672 153.642 105.272 159.152 105.213 159.064C105.154 158.976 113.458 153.323 123.765 146.436C134.067 139.551 142.469 134.04 142.528 134.128Z" fill="#E0E0E0"/>
<path d="M173.009 126.483C173.068 126.572 159.256 135.905 142.163 147.327C125.064 158.754 111.159 167.942 111.1 167.854C111.041 167.766 124.85 158.434 141.949 147.008C159.041 135.586 172.95 126.395 173.009 126.483Z" fill="#E0E0E0"/>
<path d="M179.118 135.61C179.177 135.699 165.365 145.032 148.272 156.454C131.173 167.881 117.268 177.069 117.209 176.981C117.15 176.892 130.959 167.561 148.058 156.135C165.152 144.712 179.059 135.522 179.118 135.61Z" fill="#E0E0E0"/>
<path d="M185.228 144.737C185.287 144.826 171.474 154.159 154.382 165.581C137.282 177.007 123.378 186.196 123.319 186.108C123.259 186.02 137.069 176.688 154.167 165.261C171.261 153.839 185.169 144.648 185.228 144.737Z" fill="#E0E0E0"/>
<path d="M191.337 153.864C191.396 153.952 177.584 163.285 160.491 174.708C143.392 186.134 129.487 195.323 129.428 195.235C129.369 195.146 143.178 185.815 160.277 174.388C177.37 162.966 191.278 153.776 191.337 153.864Z" fill="#E0E0E0"/>
<path d="M439.565 171.935L369.959 218.453L438.518 320.853L508.124 274.335L439.565 171.935Z" fill="#F5F5F5"/>
<path d="M472.156 269.502L471.367 274.386L436.764 269.406L437.554 264.521L472.156 269.502Z" fill="#E0E0E0"/>
<path d="M454.73 252.078L459.695 252.793L454.19 286.831L449.225 286.116L454.73 252.078Z" fill="#E0E0E0"/>
<path d="M422.858 208.816C422.917 208.904 415.949 213.664 407.296 219.446C398.641 225.23 391.579 229.846 391.52 229.757C391.461 229.669 398.427 224.91 407.083 219.126C415.735 213.345 422.799 208.728 422.858 208.816Z" fill="#E0E0E0"/>
<path d="M448.456 202.395C448.515 202.484 436.923 210.333 422.568 219.926C408.207 229.523 396.522 237.228 396.463 237.14C396.404 237.051 407.994 229.203 422.354 219.607C436.709 210.014 448.397 202.307 448.456 202.395Z" fill="#E0E0E0"/>
<path d="M453.586 210.059C453.646 210.148 442.054 217.998 427.698 227.591C413.338 237.187 401.653 244.892 401.594 244.804C401.535 244.715 413.125 236.867 427.485 227.271C441.839 217.678 453.527 209.971 453.586 210.059Z" fill="#E0E0E0"/>
<path d="M458.717 217.723C458.776 217.812 447.185 225.661 432.829 235.255C418.469 244.851 406.784 252.556 406.725 252.468C406.666 252.38 418.255 244.531 432.616 234.935C446.97 225.343 458.658 217.636 458.717 217.723Z" fill="#E0E0E0"/>
<path d="M463.85 225.389C463.909 225.478 452.317 233.327 437.962 242.921C423.602 252.517 411.917 260.222 411.858 260.134C411.799 260.046 423.388 252.197 437.749 242.601C452.103 233.009 463.791 225.301 463.85 225.389Z" fill="#E0E0E0"/>
<path d="M329.438 94.7065L253.49 54.125L193.681 165.855L269.63 206.436L329.438 94.7065Z" fill="#F5F5F5"/>
<path d="M256.629 171.488L251.811 173.137L239.58 139.356L244.399 137.707L256.629 171.488Z" fill="#E0E0E0"/>
<path d="M264.017 147.254L265.772 152.102L232.193 163.592L230.438 158.744L264.017 147.254Z" fill="#E0E0E0"/>
<path d="M287.877 97.4116C287.817 97.523 280.114 93.5223 270.673 88.4781C261.229 83.4316 253.624 79.2524 253.684 79.1409C253.744 79.0302 261.445 83.0294 270.889 88.0751C280.33 93.1201 287.937 97.3009 287.877 97.4116Z" fill="#E0E0E0"/>
<path d="M306.103 117.509C306.043 117.621 293.294 110.924 277.632 102.555C261.963 94.1826 249.313 87.3081 249.373 87.1967C249.433 87.086 262.179 93.7804 277.847 102.153C293.51 110.522 306.163 117.398 306.103 117.509Z" fill="#E0E0E0"/>
<path d="M301.626 125.873C301.566 125.985 288.818 119.288 273.155 110.918C257.487 102.546 244.837 95.6714 244.897 95.5599C244.957 95.4492 257.702 102.144 273.371 110.516C289.034 118.885 301.685 125.762 301.626 125.873Z" fill="#E0E0E0"/>
<path d="M297.148 134.235C297.088 134.346 284.339 127.649 268.677 119.28C253.008 110.908 240.358 104.033 240.418 103.921C240.477 103.81 253.224 110.505 268.892 118.878C284.555 127.247 297.208 134.124 297.148 134.235Z" fill="#E0E0E0"/>
<path d="M292.673 142.598C292.613 142.709 279.865 136.013 264.202 127.643C248.533 119.271 235.884 112.396 235.944 112.285C236.003 112.174 248.749 118.868 264.418 127.241C280.08 135.611 292.732 142.487 292.673 142.598Z" fill="#E0E0E0"/>
<path opacity="0.2" d="M293.07 0H291.162V32.4595H293.07V0Z" fill="black"/>
<path d="M247.625 71.7254H336.606C336.606 71.7254 328.39 32.4395 291.441 32.4395C258.576 32.4387 247.625 71.7254 247.625 71.7254Z" fill="#2A9D8F"/>
<path d="M293.07 0H291.162V32.4595H293.07V0Z" fill="#2A9D8F"/>
<path d="M490.228 324.592C490.228 324.699 394.755 324.784 277.01 324.784C159.224 324.784 63.7715 324.698 63.7715 324.592C63.7715 324.486 159.224 324.4 277.01 324.4C394.755 324.4 490.228 324.487 490.228 324.592Z" fill="#263238"/>
<path d="M87.3732 278.375C89.8707 278.463 92.2152 279.817 93.8624 281.695C95.5097 283.573 96.5194 285.934 97.1657 288.346C98.4156 293.013 97.6474 298.52 96.3155 303.164C91.2586 301.358 88.1407 295.97 86.7306 293.137C84.5013 288.661 83.1946 279.217 87.3732 278.375Z" fill="#2A9D8F"/>
<path d="M103.591 308.819C101.995 306.53 101.958 303.347 103.219 300.859C104.48 298.37 106.904 296.576 109.573 295.757C110.807 295.378 112.238 295.219 113.312 295.936C114.316 296.605 114.749 297.919 114.619 299.118C114.49 300.316 113.882 301.414 113.165 302.383C110.706 305.71 107.715 308.477 103.591 308.819Z" fill="#2A9D8F"/>
<path d="M104.149 324.414C104.124 324.417 104.047 324.071 103.923 323.444C103.787 322.752 103.612 321.858 103.403 320.784C103.004 318.548 102.371 315.368 102.849 311.852C103.31 308.352 104.704 305.36 106.166 303.573C106.885 302.669 107.575 302.029 108.084 301.636C108.331 301.429 108.548 301.302 108.686 301.204C108.827 301.111 108.905 301.068 108.912 301.077C108.968 301.14 107.73 301.902 106.363 303.724C104.978 305.517 103.651 308.457 103.197 311.899C102.726 315.343 103.31 318.494 103.647 320.742C103.828 321.871 103.974 322.786 104.058 323.422C104.141 324.057 104.172 324.411 104.149 324.414Z" fill="#263238"/>
<path d="M89.0055 285.479C89.0165 285.473 89.0867 285.606 89.2093 285.861C89.3438 286.152 89.5166 286.524 89.7301 286.986C90.177 287.965 90.8049 289.39 91.5664 291.158C93.0903 294.692 95.1261 299.605 97.2519 305.079C99.3771 310.556 101.188 315.557 102.448 319.193C103.079 321.011 103.576 322.486 103.907 323.511C104.06 323.996 104.184 324.387 104.28 324.692C104.362 324.964 104.399 325.108 104.388 325.112C104.376 325.116 104.317 324.979 104.214 324.715C104.102 324.416 103.957 324.031 103.778 323.555C103.394 322.503 102.864 321.052 102.214 319.275C100.895 315.662 99.0484 310.678 96.9247 305.205C94.8003 299.735 92.8015 294.811 91.3374 291.254C90.618 289.504 90.03 288.075 89.6038 287.04C89.4147 286.568 89.2618 286.186 89.1429 285.889C89.0424 285.625 88.9944 285.484 89.0055 285.479Z" fill="#263238"/>
<path d="M98.1456 314.097C95.1636 309.027 89.5955 305.571 83.7253 305.146C82.2303 305.037 80.4324 305.289 79.7661 306.63C79.0983 307.973 79.9914 309.563 81.01 310.665C85.247 315.25 92.415 316.849 98.2017 314.499" fill="#2A9D8F"/>
<path d="M86.002 309.143C86.0035 309.118 86.3359 309.132 86.9379 309.177C87.2393 309.198 87.6079 309.225 88.0296 309.304C88.4507 309.382 88.9404 309.428 89.4619 309.573C89.9871 309.701 90.5662 309.83 91.166 310.046C91.7776 310.227 92.4055 310.488 93.0651 310.767C94.3681 311.358 95.7502 312.132 97.0665 313.137C98.3732 314.155 99.4767 315.292 100.374 316.408C100.806 316.98 101.218 317.521 101.539 318.072C101.894 318.601 102.158 319.133 102.406 319.613C102.671 320.084 102.827 320.551 103.001 320.943C103.176 321.334 103.285 321.687 103.372 321.977C103.552 322.553 103.639 322.873 103.616 322.88C103.542 322.906 103.182 321.616 102.186 319.726C101.928 319.259 101.655 318.743 101.295 318.228C100.968 317.692 100.553 317.166 100.122 316.609C99.2256 315.523 98.1361 314.414 96.853 313.415C95.5603 312.428 94.2078 311.659 92.9322 311.062C92.2866 310.779 91.672 310.511 91.0729 310.321C90.4864 310.097 89.9177 309.957 89.4028 309.814C87.3308 309.29 85.9939 309.219 86.002 309.143Z" fill="#263238"/>
<path d="M220.83 173.094L194.71 307.262L191.291 324.825L365.663 323.966C373.488 323.927 380.424 316.985 382.942 306.671L413.862 180.003C415.773 172.172 411.579 164.029 405.638 164.035L229.154 164.22C225.257 164.226 221.85 167.858 220.83 173.094Z" fill="#2A9D8F"/>
<g opacity="0.5">
<path d="M220.83 173.094L194.71 307.262L191.291 324.825L365.663 323.966C373.488 323.927 380.424 316.985 382.942 306.671L413.862 180.003C415.773 172.172 411.579 164.029 405.638 164.035L229.154 164.22C225.257 164.226 221.85 167.858 220.83 173.094Z" fill="white"/>
</g>
<path d="M348.936 298.172L330.474 149.533C329.718 143.442 324.862 138.899 319.128 138.918L278.645 139.05C275.649 139.06 272.776 140.333 270.647 142.593L251.424 163.01L138.832 163.597C131.951 163.633 126.665 170.137 127.577 177.445L144.719 314.826C145.477 320.908 150.324 325.445 156.05 325.434L352.274 325.046C374.129 325.498 376.215 319.05 376.215 319.05C351.169 324.596 348.939 298.189 348.936 298.172Z" fill="#2A9D8F"/>
<g opacity="0.5">
<path d="M264.326 268.425L257.708 275.526L206.738 229.714L213.357 222.613L264.326 268.425Z" fill="white"/>
<path d="M254.935 221.039L262.249 227.612L216.131 277.1L208.816 270.526L254.935 221.039Z" fill="white"/>
</g>
</svg>
