<svg width="36" height="36" viewBox="0 0 36 36" fill="none" xmlns="http://www.w3.org/2000/svg">
<rect width="36" height="36" rx="5" fill="#F5F1FD"/>
<g clip-path="url(#clip0_941_16590)">
<path d="M21.6673 17.333C19.278 17.333 17.334 19.277 17.334 21.6663C17.334 24.0557 19.278 25.9997 21.6673 25.9997C24.0567 25.9997 26.0007 24.0557 26.0007 21.6663C26.0007 19.277 24.0567 17.333 21.6673 17.333ZM23.5393 22.8343L22.0393 24.501C21.944 24.6063 21.8093 24.6663 21.6673 24.6663C21.5253 24.6663 21.3907 24.6063 21.2953 24.501L19.7953 22.8343C19.5067 22.513 19.7353 21.9997 20.1673 21.9997H21.0007V19.333C21.0007 18.965 21.2987 18.6663 21.6673 18.6663C22.036 18.6663 22.334 18.965 22.334 19.333V21.9997H23.1673C23.5993 21.9997 23.828 22.513 23.5393 22.8343Z" fill="#0F3650"/>
<path d="M16.6667 10L23.3333 12.6667L16.6667 15.3333L10 12.6667L16.6667 10Z" fill="#0F3650"/>
<path d="M16 16.5025L10 14.1025V20.6665C10 20.8065 10.0867 20.9305 10.218 20.9792L16 23.1092V16.5025Z" fill="#0F3650"/>
<path d="M21.6673 15.9999C22.2473 15.9999 22.8067 16.0885 23.334 16.2505V14.1025L17.334 16.5025V18.0225C18.374 16.7879 19.93 15.9999 21.6673 15.9999Z" fill="#0F3650"/>
</g>
<defs>
<clipPath id="clip0_941_16590">
<rect width="16" height="16" fill="white" transform="translate(10 10)"/>
</clipPath>
</defs>
</svg>
