<svg width="18" height="18" viewBox="0 0 18 18" fill="none" xmlns="http://www.w3.org/2000/svg">
<path d="M2.57823 9.32806C2.79705 9.10924 3.06258 9.00002 3.37522 9.00002H12.0001V5.25006C12.0001 4.4218 11.7071 3.71486 11.1211 3.12889C10.5351 2.54304 9.82814 2.25006 8.99995 2.25006C8.17185 2.25006 7.46475 2.543 6.87899 3.12889C6.29297 3.71486 5.99995 4.42184 5.99995 5.25006C5.99995 5.45312 5.92578 5.62888 5.77748 5.7773C5.62885 5.92576 5.45301 6.00001 5.25016 6.00001H4.4998C4.29683 6.00001 4.12107 5.92576 3.97244 5.7773C3.82443 5.62888 3.74997 5.45312 3.74997 5.25006C3.74997 3.80459 4.26366 2.56849 5.29088 1.54107C6.31826 0.513608 7.55469 0 8.99995 0C10.4453 0 11.6816 0.513608 12.7091 1.54103C13.7364 2.56833 14.2501 3.80455 14.2501 5.25002V8.99998H14.625C14.9374 8.99998 15.2031 9.10945 15.4219 9.32802C15.6407 9.54659 15.75 9.81236 15.75 10.1249V16.875C15.75 17.1876 15.6406 17.4533 15.4219 17.672C15.2031 17.8905 14.9374 18 14.625 18H3.37522C3.06258 18 2.7968 17.8905 2.57823 17.672C2.35966 17.4533 2.25011 17.1876 2.25011 16.875V10.1249C2.24995 9.8124 2.35938 9.54692 2.57823 9.32806Z" fill="#01AB4F"/>
</svg>
