<svg width="36" height="36" viewBox="0 0 36 36" fill="none" xmlns="http://www.w3.org/2000/svg">
<rect width="36" height="36" rx="5" fill="#2A9D8F" fill-opacity="0.08"/>
<path d="M24.6965 21.68C24.2595 21.3135 21.6965 19.6905 21.2705 19.765C21.0705 19.8005 20.9175 19.971 20.508 20.4595C20.3186 20.6999 20.1107 20.9251 19.886 21.133C19.4744 21.0336 19.076 20.8859 18.699 20.693C17.2206 19.9732 16.0263 18.7786 15.307 17.3C15.1141 16.923 14.9664 16.5246 14.867 16.113C15.0749 15.8883 15.3001 15.6804 15.5405 15.491C16.0285 15.0815 16.1995 14.9295 16.235 14.7285C16.3095 14.3015 14.685 11.7395 14.32 11.3025C14.167 11.1215 14.028 11 13.85 11C13.334 11 11 13.886 11 14.26C11 14.2905 11.05 17.295 14.8445 21.1555C18.705 24.95 21.7095 25 21.74 25C22.114 25 25 22.666 25 22.15C25 21.972 24.8785 21.833 24.6965 21.68Z" fill="#0F3650"/>
<path d="M21.5 17.5H22.5C22.4988 16.4395 22.077 15.4228 21.3271 14.6729C20.5772 13.923 19.5605 13.5012 18.5 13.5V14.5C19.2954 14.5008 20.058 14.8171 20.6204 15.3796C21.1829 15.942 21.4992 16.7046 21.5 17.5Z" fill="#0F3650"/>
<path d="M24 17.5H25C24.998 15.7767 24.3126 14.1246 23.094 12.906C21.8754 11.6874 20.2233 11.002 18.5 11V12C19.9582 12.0017 21.3561 12.5817 22.3872 13.6128C23.4183 14.6439 23.9983 16.0418 24 17.5Z" fill="#0F3650"/>
</svg>
