<svg width="83" height="82" viewBox="0 0 83 82" fill="none" xmlns="http://www.w3.org/2000/svg">
<circle cx="41.5" cy="41" r="40" fill="white" stroke="#2A9D8F" stroke-width="2"/>
<g clip-path="url(#clip0_1445_29133)">
<path d="M61.8305 52.4349L45.777 24.6295C44.8843 23.0833 43.2855 22.1602 41.5 22.1602C39.7146 22.1602 38.1156 23.0833 37.223 24.6295L21.1696 52.4348C20.2768 53.9811 20.2768 55.8273 21.1696 57.3735C22.0623 58.9197 23.6611 59.8428 25.4466 59.8428H57.5534C59.3388 59.8428 60.9377 58.9196 61.8305 57.3736C62.7232 55.8273 62.7232 53.9811 61.8305 52.4349ZM59.6995 56.1433C59.2515 56.9191 58.4492 57.3823 57.5534 57.3823H25.4466C24.5506 57.3823 23.7484 56.9191 23.3005 56.1433C22.8526 55.3674 22.8526 54.4411 23.3005 53.6653L39.354 25.8598C39.8019 25.084 40.6042 24.6208 41.5001 24.6208C42.3958 24.6208 43.1982 25.084 43.6461 25.8598L59.6996 53.6653C60.1474 54.4411 60.1474 55.3674 59.6995 56.1433Z" fill="#2A9D8F"/>
<path d="M42.7301 34.4375H40.2695V46.7407H42.7301V34.4375Z" fill="#2A9D8F"/>
<path d="M41.4998 49.2031C40.5953 49.2031 39.8594 49.939 39.8594 50.8436C39.8594 51.7481 40.5953 52.484 41.4998 52.484C42.4043 52.484 43.1403 51.7481 43.1403 50.8436C43.1403 49.939 42.4044 49.2031 41.4998 49.2031Z" fill="#2A9D8F"/>
</g>
<defs>
<clipPath id="clip0_1445_29133">
<rect width="42" height="42" fill="white" transform="translate(20.5 20)"/>
</clipPath>
</defs>
</svg>
