<svg width="82" height="82" viewBox="0 0 82 82" fill="none" xmlns="http://www.w3.org/2000/svg">
<circle cx="41" cy="41" r="40" fill="white" stroke="#F06666" stroke-width="2"/>
<g clip-path="url(#clip0_1542_26680)">
<path d="M61.3305 52.4329L45.277 24.6275C44.3843 23.0814 42.7855 22.1582 41 22.1582C39.2146 22.1582 37.6156 23.0814 36.723 24.6275L20.6696 52.4328C19.7768 53.9791 19.7768 55.8253 20.6696 57.3715C21.5623 58.9177 23.1611 59.8408 24.9466 59.8408H57.0534C58.8388 59.8408 60.4377 58.9176 61.3305 57.3716C62.2232 55.8253 62.2232 53.9791 61.3305 52.4329ZM59.1995 56.1413C58.7515 56.9172 57.9492 57.3803 57.0534 57.3803H24.9466C24.0506 57.3803 23.2484 56.9172 22.8005 56.1413C22.3526 55.3655 22.3526 54.4392 22.8005 53.6633L38.854 25.8579C39.3019 25.082 40.1042 24.6189 41.0001 24.6189C41.8958 24.6189 42.6982 25.082 43.1461 25.8579L59.1996 53.6633C59.6474 54.4392 59.6474 55.3655 59.1995 56.1413Z" fill="#F06666"/>
<path d="M42.2301 34.4375H39.7695V46.7407H42.2301V34.4375Z" fill="#F06666"/>
<path d="M40.9998 49.2031C40.0953 49.2031 39.3594 49.939 39.3594 50.8436C39.3594 51.7481 40.0953 52.484 40.9998 52.484C41.9043 52.484 42.6403 51.7481 42.6403 50.8436C42.6403 49.939 41.9044 49.2031 40.9998 49.2031Z" fill="#F06666"/>
</g>
<defs>
<clipPath id="clip0_1542_26680">
<rect width="42" height="42" fill="white" transform="translate(20 20)"/>
</clipPath>
</defs>
</svg>
