<svg width="12" height="13" viewBox="0 0 12 13" fill="none" xmlns="http://www.w3.org/2000/svg">
<g clip-path="url(#clip0_1964_15101)">
<path d="M6.89321 6.49999L11.815 1.57817C12.0617 1.33151 12.0617 0.931624 11.815 0.684992C11.5684 0.438336 11.1685 0.438336 10.9218 0.684992L5.99999 5.60681L1.07817 0.684992C0.831514 0.438336 0.431624 0.438336 0.184992 0.684992C-0.0616405 0.931648 -0.0616639 1.33154 0.184992 1.57817L5.10681 6.49999L0.184992 11.4218C-0.0616639 11.6685 -0.0616639 12.0684 0.184992 12.315C0.431648 12.5616 0.831537 12.5616 1.07817 12.315L5.99999 7.39317L10.9218 12.315C11.1684 12.5616 11.5684 12.5616 11.815 12.315C12.0616 12.0683 12.0616 11.6684 11.815 11.4218L6.89321 6.49999Z" fill="white"/>
</g>
<defs>
<clipPath id="clip0_1964_15101">
<rect width="12" height="12" fill="white" transform="translate(0 0.5)"/>
</clipPath>
</defs>
</svg>
