<svg width="18" height="18" viewBox="0 0 18 18" fill="none" xmlns="http://www.w3.org/2000/svg">
<path d="M14.6657 7.41014H13.8128V4.81312C13.8128 2.15942 11.6538 0 9.00029 0C6.34576 0 4.18721 2.15913 4.18721 4.81312V7.41014H3.33459C2.84387 7.41014 2.44629 7.80792 2.44629 8.29845V17.1117C2.44629 17.6023 2.84387 18 3.33459 18H14.6657C15.1554 18 15.554 17.6023 15.554 17.1117V8.29845C15.554 7.80792 15.1554 7.41014 14.6657 7.41014ZM5.96362 4.81312C5.96362 3.13843 7.3256 1.77646 9.00024 1.77646C10.6745 1.77646 12.0365 3.13843 12.0365 4.81312V7.41014H5.96362V4.81312Z" fill="#264653"/>
</svg>
