<svg width="16" height="16" viewBox="0 0 16 16" fill="none" xmlns="http://www.w3.org/2000/svg">
<path fill-rule="evenodd" clip-rule="evenodd" d="M13.0399 1.84001H5.75982C5.14126 1.84001 4.63981 2.34145 4.63981 2.96002V10.2401C4.63981 10.8586 5.14126 11.3601 5.75982 11.3601H13.0399C13.6584 11.3601 14.1599 10.8586 14.1599 10.2401V2.96002C14.1599 2.34145 13.6584 1.84001 13.0399 1.84001ZM5.75982 1C4.67733 1 3.7998 1.87753 3.7998 2.96002V10.2401C3.7998 11.3226 4.67733 12.2001 5.75982 12.2001H13.0399C14.1224 12.2001 14.9999 11.3226 14.9999 10.2401V2.96002C14.9999 1.87753 14.1224 1 13.0399 1H5.75982Z" fill="#464646"/>
<path d="M2.96002 4.89079H10.2401C10.7206 4.89079 11.1101 5.2803 11.1101 5.7608V13.0409C11.1101 13.5213 10.7206 13.9109 10.2401 13.9109H2.96002C2.47952 13.9109 2.09001 13.5213 2.09001 13.0409V5.7608C2.09001 5.2803 2.47952 4.89079 2.96002 4.89079ZM2.96002 3.55078C1.73946 3.55078 0.75 4.54024 0.75 5.7608V13.0409C0.75 14.2614 1.73946 15.2509 2.96002 15.2509H10.2401C11.4606 15.2509 12.4501 14.2614 12.4501 13.0409V5.7608C12.4501 4.54024 11.4606 3.55078 10.2401 3.55078H2.96002Z" fill="#464646" stroke="white" stroke-width="0.5"/>
</svg>
