<svg width="83" height="82" viewBox="0 0 83 82" fill="none" xmlns="http://www.w3.org/2000/svg">
<circle cx="41.5" cy="41" r="40" fill="white" stroke="#2A9D8F" stroke-width="2"/>
<g clip-path="url(#clip0_1445_24711)">
<path d="M61.8305 52.4329L45.777 24.6275C44.8843 23.0814 43.2855 22.1582 41.5 22.1582C39.7146 22.1582 38.1156 23.0814 37.223 24.6275L21.1696 52.4328C20.2768 53.9791 20.2768 55.8253 21.1696 57.3715C22.0623 58.9177 23.6611 59.8408 25.4466 59.8408H57.5534C59.3388 59.8408 60.9377 58.9176 61.8305 57.3716C62.7232 55.8253 62.7232 53.9791 61.8305 52.4329ZM59.6995 56.1413C59.2515 56.9172 58.4492 57.3803 57.5534 57.3803H25.4466C24.5506 57.3803 23.7484 56.9172 23.3005 56.1413C22.8526 55.3655 22.8526 54.4392 23.3005 53.6633L39.354 25.8579C39.8019 25.082 40.6042 24.6189 41.5001 24.6189C42.3958 24.6189 43.1982 25.082 43.6461 25.8579L59.6996 53.6633C60.1474 54.4392 60.1474 55.3655 59.6995 56.1413Z" fill="#2A9D8F"/>
<path d="M42.7301 34.4375H40.2695V46.7407H42.7301V34.4375Z" fill="#2A9D8F"/>
<path d="M41.4998 49.2031C40.5953 49.2031 39.8594 49.939 39.8594 50.8436C39.8594 51.7481 40.5953 52.484 41.4998 52.484C42.4043 52.484 43.1403 51.7481 43.1403 50.8436C43.1403 49.939 42.4044 49.2031 41.4998 49.2031Z" fill="#2A9D8F"/>
</g>
<defs>
<clipPath id="clip0_1445_24711">
<rect width="42" height="42" fill="white" transform="translate(20.5 20)"/>
</clipPath>
</defs>
</svg>
